<svg width="278" height="35" viewBox="0 0 278 35" fill="none" xmlns="http://www.w3.org/2000/svg">
<path d="M6.12551 34.408C2.8512 34.408 0.464844 32.0216 0.464844 28.7473V5.66067C0.464844 2.38636 2.8512 0 6.12551 0H37.4812C40.7555 0 43.1418 2.38636 43.1418 5.66067V8.54649H14.894C13.4511 8.54649 12.3411 9.65643 12.3411 11.0993V23.3086C12.3411 24.7515 13.4511 25.8615 14.894 25.8615H30.4331C31.7095 25.8615 32.6529 24.918 32.6529 23.6416C32.6529 22.4207 31.7095 21.4217 30.4331 21.4217H17.0584V16.4825C17.0584 15.0396 18.1683 13.9297 19.6112 13.9297H43.0863V28.7473C43.0863 32.0216 40.7 34.408 37.4257 34.408H6.12551Z" fill="#C1DF1E"/>
<path d="M49.4077 34.408V0H87.5895V9.10146H63.0599C61.95 9.10146 61.1176 9.93391 61.1176 10.9883C61.1176 12.0428 61.95 12.8197 63.0599 12.8197H87.5895V21.5882H63.0599C61.95 21.5882 61.1176 22.3652 61.1176 23.4196C61.1176 24.4741 61.95 25.3065 63.0599 25.3065H87.5895V34.408H49.4077Z" fill="#C1DF1E"/>
<path d="M99.451 34.408C96.1767 34.408 93.7904 32.0216 93.7904 28.7473V5.66067C93.7904 2.38636 96.1767 0 99.451 0H131.195C134.469 0 136.856 2.38636 136.856 5.66067V28.7473C136.856 32.0216 134.469 34.408 131.195 34.408H99.451ZM108.22 24.9735H122.427C123.87 24.9735 124.98 23.8636 124.98 22.4207V11.9873C124.98 10.5444 123.87 9.43444 122.427 9.43444H108.22C106.777 9.43444 105.667 10.5444 105.667 11.9873V22.4207C105.667 23.8636 106.777 24.9735 108.22 24.9735Z" fill="#C1DF1E"/>
<path d="M143.113 34.408V0H178.298C182.071 0 184.125 2.05338 184.125 5.82715V12.7087C184.125 15.5391 183.126 17.315 180.684 18.2584C182.848 19.0909 184.125 20.5893 184.125 22.8092V34.408H172.248V26.9714C172.248 25.6395 171.139 24.5296 169.807 24.5296H154.989V34.408H143.113ZM157.653 15.6501H169.141C171.083 15.6501 172.637 14.0962 172.637 12.2093C172.637 10.2669 171.083 8.71298 169.141 8.71298H157.653C155.766 8.71298 154.157 10.2669 154.157 12.2093C154.157 14.0962 155.766 15.6501 157.653 15.6501Z" fill="#C1DF1E"/>
<path d="M195.974 34.408C192.7 34.408 190.313 32.0216 190.313 28.7473V5.66067C190.313 2.38636 192.7 0 195.974 0H227.33C230.604 0 232.99 2.38636 232.99 5.66067V8.54649H204.743C203.3 8.54649 202.19 9.65643 202.19 11.0993V23.3086C202.19 24.7515 203.3 25.8615 204.743 25.8615H220.282C221.558 25.8615 222.502 24.918 222.502 23.6416C222.502 22.4207 221.558 21.4217 220.282 21.4217H206.907V16.4825C206.907 15.0396 208.017 13.9297 209.46 13.9297H232.935V28.7473C232.935 32.0216 230.549 34.408 227.274 34.408H195.974Z" fill="#C1DF1E"/>
<path d="M239.256 34.408V0H277.438V9.10146H252.909C251.799 9.10146 250.966 9.93391 250.966 10.9883C250.966 12.0428 251.799 12.8197 252.909 12.8197H277.438V21.5882H252.909C251.799 21.5882 250.966 22.3652 250.966 23.4196C250.966 24.4741 251.799 25.3065 252.909 25.3065H277.438V34.408H239.256Z" fill="#C1DF1E"/>
</svg>
